<svg xmlns="http://www.w3.org/2000/svg" xmlns:xlink="http://www.w3.org/1999/xlink">
	<symbol viewBox="0 0 512 512" id='logo'>
		<path style="fill:#B4E66E;" d="M358.614,102.079H50.772c-4.722,0-8.551,3.829-8.551,8.551v179.574h25.653
			c9.445,0,17.102,7.656,17.102,17.102c0,9.445-7.658,17.102-17.102,17.102H42.221v25.653c0,4.722,3.829,8.551,8.551,8.551h316.393
			V110.63C367.165,105.908,363.336,102.079,358.614,102.079z"/>
		<path style="fill:#FFDC64;" d="M469.779,238.898H367.165v119.716h136.818v-85.512C503.983,254.212,488.669,238.898,469.779,238.898z
			"/>
		<path style="fill:#FFC850;" d="M367.165,264.551h92.638c9.446,0,17.102,7.656,17.102,17.102v76.96h-109.74V264.551z"/>
		<path style="fill:#FFDC64;" d="M435.574,136.284h-68.409v34.205h94.063v-8.551C461.228,147.769,449.742,136.284,435.574,136.284z"/>
		<polygon style="fill:#B4E6FF;" points="469.779,238.898 452.676,170.489 367.165,170.489 367.165,238.898 "/>
		<path style="fill:#F1F4FB;" d="M469.779,273.102h34.205v34.205h-17.102c-9.446,0-17.102-7.656-17.102-17.102V273.102z"/>
		<path style="fill:#E1A546;" d="M427.023,298.756c-25.772,0-48.194,14.265-59.858,35.317v24.541h127.676
			C490.624,324.877,461.902,298.756,427.023,298.756z"/>
		<path style="fill:#FFC850;" d="M476.904,320.412v38.202h17.937C493.005,343.925,486.518,330.686,476.904,320.412z"/>
		<circle style="fill:#5B5D6E;" cx="427.023" cy="367.165" r="42.756"/>
		<path style="fill:#9BD6FF;" d="M401.37,196.142h57.72l-6.413-25.653h-85.511v68.409h25.653v-34.205
			C392.818,199.971,396.647,196.142,401.37,196.142z"/>
		<path style="fill:#A0D755;" d="M144.835,298.756c-21.593,0-40.819,10.028-53.355,25.653H67.875H42.221v25.653
			c0,4.722,3.829,8.551,8.551,8.551h316.393v-34.205H198.19C185.654,308.784,166.428,298.756,144.835,298.756z"/>
		<circle style="fill:#5B5D6E;" cx="144.835" cy="367.165" r="42.756"/>
		<path d="M476.158,231.363l-13.259-53.035c3.625-0.77,6.345-3.986,6.345-7.839v-8.551c0-18.566-15.105-33.67-33.67-33.67h-60.392
			V110.63c0-9.136-7.432-16.568-16.568-16.568H50.772c-9.136,0-16.568,7.432-16.568,16.568V256c0,4.427,3.589,8.017,8.017,8.017
			s8.017-3.589,8.017-8.017V110.63c0-0.295,0.239-0.534,0.534-0.534h307.841c0.295,0,0.534,0.239,0.534,0.534v145.372
			c0,4.427,3.589,8.017,8.017,8.017c4.427,0,8.017-3.589,8.017-8.017v-9.088h94.569c0.007,0,0.014,0.002,0.021,0.002
			c0.007,0,0.015-0.001,0.022-0.001c11.637,0.007,21.518,7.646,24.912,18.171h-24.928c-4.427,0-8.017,3.589-8.017,8.017v17.102
			c0,13.851,11.268,25.119,25.119,25.119h9.086v35.273h-20.962c-6.886-19.882-25.787-34.205-47.982-34.205
			s-41.097,14.322-47.982,34.205h-3.86v-60.392c0-4.427-3.589-8.017-8.017-8.017c-4.427,0-8.017,3.589-8.017,8.017v60.391H192.817
			c-6.886-19.883-25.787-34.205-47.982-34.205s-41.097,14.322-47.982,34.205H50.772c-0.295,0-0.534-0.239-0.534-0.534v-17.637h34.739
			c4.427,0,8.017-3.589,8.017-8.017c0-4.427-3.589-8.017-8.017-8.017H8.017c-4.427,0-8.017,3.589-8.017,8.017
			c0,4.427,3.589,8.017,8.017,8.017h26.188v17.637c0,9.136,7.432,16.568,16.568,16.568h43.304c-0.002,0.178-0.014,0.355-0.014,0.534
			c0,27.996,22.777,50.772,50.772,50.772s50.772-22.776,50.772-50.772c0-0.18-0.012-0.356-0.014-0.534h180.67
			c-0.002,0.178-0.014,0.355-0.014,0.534c0,27.996,22.777,50.772,50.772,50.772c27.995,0,50.772-22.776,50.772-50.772
			c0-0.18-0.012-0.356-0.014-0.534h26.203c4.427,0,8.017-3.589,8.017-8.017v-85.512C512,251.99,496.423,234.448,476.158,231.363z
			 M375.182,178.505h71.235l13.094,52.376h-84.329V178.505z M435.574,144.301c9.725,0,17.637,7.912,17.637,17.637v0.534h-78.029
			v-18.171H435.574z M144.835,401.904c-19.155,0-34.739-15.583-34.739-34.739c0-19.156,15.584-34.739,34.739-34.739
			c19.155,0,34.739,15.583,34.739,34.739C179.574,386.321,163.99,401.904,144.835,401.904z M427.023,401.904
			c-19.155,0-34.739-15.583-34.739-34.739c0-19.156,15.584-34.739,34.739-34.739c19.155,0,34.739,15.583,34.739,34.739
			C461.762,386.321,446.178,401.904,427.023,401.904z M486.881,299.29c-5.01,0-9.086-4.076-9.086-9.086v-9.086h18.171v18.171H486.881z
			"/>
		<path d="M144.835,350.597c-9.136,0-16.568,7.432-16.568,16.568c0,9.136,7.432,16.568,16.568,16.568
			c9.136,0,16.568-7.432,16.568-16.568C161.403,358.029,153.971,350.597,144.835,350.597z"/>
		<path d="M427.023,350.597c-9.136,0-16.568,7.432-16.568,16.568c0,9.136,7.432,16.568,16.568,16.568s16.568-7.432,16.568-16.568
			C443.591,358.029,436.159,350.597,427.023,350.597z"/>
		<path d="M205.228,324.409c0,4.427,3.589,8.017,8.017,8.017H332.96c4.427,0,8.017-3.589,8.017-8.017c0-4.427-3.589-8.017-8.017-8.017
			H213.244C208.817,316.392,205.228,319.982,205.228,324.409z"/>
		<path d="M25.119,298.221h102.614c4.427,0,8.017-3.589,8.017-8.017c0-4.427-3.589-8.017-8.017-8.017H25.119
			c-4.427,0-8.017,3.589-8.017,8.017C17.102,294.632,20.692,298.221,25.119,298.221z"/>
		<path d="M267.434,173.371l-71.292,71.291l-37.087-37.087c-3.131-3.131-8.207-3.131-11.337,0c-3.131,3.131-3.131,8.206,0,11.337
			l42.756,42.756c1.565,1.566,3.617,2.348,5.668,2.348s4.103-0.782,5.668-2.348l76.96-76.96c3.131-3.131,3.131-8.206,0-11.337
			C275.641,170.241,270.564,170.241,267.434,173.371z"/>
	</symbol>
	<symbol id='time' viewBox="0 0 511.992 511.992">
		<g id="XMLID_806_">
			<g id="XMLID_386_">
				<path id="XMLID_389_" d="M511.005,279.646c-4.597-46.238-25.254-89.829-58.168-122.744    c-28.128-28.127-62.556-46.202-98.782-54.239V77.255c14.796-3.681,25.794-17.074,25.794-32.993c0-18.748-15.252-34-34-34h-72    c-18.748,0-34,15.252-34,34c0,15.918,10.998,29.311,25.793,32.993v25.479c-36.115,8.071-70.429,26.121-98.477,54.169    c-6.138,6.138-11.798,12.577-16.979,19.269c-0.251-0.019-0.502-0.038-0.758-0.038H78.167c-5.522,0-10,4.477-10,10s4.478,10,10,10    h58.412c-7.332,12.275-13.244,25.166-17.744,38.436H10c-5.522,0-10,4.477-10,10s4.478,10,10,10h103.184    c-2.882,12.651-4.536,25.526-4.963,38.437H64c-5.522,0-10,4.477-10,10s4.478,10,10,10h44.54    c0.844,12.944,2.925,25.82,6.244,38.437H50c-5.522,0-10,4.477-10,10s4.478,10,10,10h71.166    c9.81,25.951,25.141,50.274,45.999,71.132c32.946,32.946,76.582,53.608,122.868,58.181c6.606,0.652,13.217,0.975,19.819,0.975    c39.022,0,77.548-11.293,110.238-32.581c4.628-3.014,5.937-9.209,2.923-13.837s-9.209-5.937-13.837-2.923    c-71.557,46.597-167.39,36.522-227.869-23.957c-70.962-70.962-70.962-186.425,0-257.388c70.961-70.961,186.424-70.961,257.387,0    c60.399,60.4,70.529,156.151,24.086,227.673c-3.008,4.632-1.691,10.826,2.94,13.833c4.634,3.008,10.826,1.691,13.833-2.941    C504.367,371.396,515.537,325.241,511.005,279.646z M259.849,44.263c0-7.72,6.28-14,14-14h72c7.72,0,14,6.28,14,14s-6.28,14-14,14    h-1.794h-68.413h-1.793C266.129,58.263,259.849,51.982,259.849,44.263z M285.642,99.296V78.263h48.413v20.997    C317.979,97.348,301.715,97.36,285.642,99.296z"/>
				<path id="XMLID_391_" d="M445.77,425.5c-2.64,0-5.21,1.07-7.069,2.93c-1.87,1.86-2.931,4.44-2.931,7.07    c0,2.63,1.061,5.21,2.931,7.07c1.859,1.87,4.43,2.93,7.069,2.93c2.63,0,5.2-1.06,7.07-2.93c1.86-1.86,2.93-4.44,2.93-7.07    c0-2.63-1.069-5.21-2.93-7.07C450.97,426.57,448.399,425.5,445.77,425.5z"/>
				<path id="XMLID_394_" d="M310.001,144.609c-85.538,0-155.129,69.59-155.129,155.129s69.591,155.129,155.129,155.129    s155.129-69.59,155.129-155.129S395.539,144.609,310.001,144.609z M310.001,434.867c-74.511,0-135.129-60.619-135.129-135.129    s60.618-135.129,135.129-135.129S445.13,225.228,445.13,299.738S384.512,434.867,310.001,434.867z"/>
				<path id="XMLID_397_" d="M373.257,222.34l-49.53,49.529c-4.142-2.048-8.801-3.205-13.726-3.205c-4.926,0-9.584,1.157-13.726,3.205    l-22.167-22.167c-3.906-3.905-10.236-3.905-14.143,0c-3.905,3.905-3.905,10.237,0,14.142l22.167,22.167    c-2.049,4.142-3.205,8.801-3.205,13.726c0,17.134,13.939,31.074,31.074,31.074s31.074-13.94,31.074-31.074    c0-4.925-1.157-9.584-3.205-13.726l48.076-48.076v0l1.453-1.453c3.905-3.905,3.905-10.237,0-14.142    S377.164,218.435,373.257,222.34z M310.001,310.812c-6.106,0-11.074-4.968-11.074-11.074s4.968-11.074,11.074-11.074    s11.074,4.968,11.074,11.074S316.107,310.812,310.001,310.812z"/>
				<path id="XMLID_398_" d="M416.92,289.86h-9.265c-5.522,0-10,4.477-10,10s4.478,10,10,10h9.265c5.522,0,10-4.477,10-10    S422.442,289.86,416.92,289.86z"/>
				<path id="XMLID_399_" d="M212.346,289.616h-9.264c-5.522,0-10,4.477-10,10s4.478,10,10,10h9.264c5.522,0,10-4.477,10-10    S217.868,289.616,212.346,289.616z"/>
				<path id="XMLID_400_" d="M310.123,212.083c5.522,0,10-4.477,10-10v-9.264c0-5.523-4.478-10-10-10s-10,4.477-10,10v9.264    C300.123,207.606,304.601,212.083,310.123,212.083z"/>
				<path id="XMLID_424_" d="M309.879,387.393c-5.522,0-10,4.477-10,10v9.264c0,5.523,4.478,10,10,10s10-4.477,10-10v-9.264    C319.879,391.87,315.401,387.393,309.879,387.393z"/>
				<path id="XMLID_425_" d="M10,351.44c-2.63,0-5.21,1.07-7.07,2.93c-1.86,1.86-2.93,4.44-2.93,7.07c0,2.64,1.069,5.21,2.93,7.07    s4.44,2.93,7.07,2.93s5.21-1.07,7.069-2.93c1.86-1.86,2.931-4.44,2.931-7.07s-1.07-5.21-2.931-7.07    C15.21,352.51,12.63,351.44,10,351.44z"/>
			</g>
		</g>
	</symbol>
	<symbol id='mover' viewBox="0 0 511.998 511.998">
		<g>
			<g>
				<path d="M414.498,188.525h-32.234l9.712-111.509c0.018-0.202,0.021-0.401,0.022-0.6c0-0.017,0.002-0.033,0.002-0.05
					c0-0.003,0-0.005,0-0.008c0-3.035-1.831-5.71-4.522-6.873c-0.023-0.01-0.045-0.022-0.068-0.032c-0.167-0.07-0.34-0.13-0.514-0.188
					c-0.065-0.021-0.127-0.047-0.192-0.067c-0.142-0.043-0.288-0.077-0.433-0.112c-0.102-0.024-0.2-0.053-0.303-0.073
					c-0.127-0.025-0.259-0.041-0.389-0.06c-0.122-0.018-0.242-0.039-0.365-0.05c-0.021-0.002-0.04-0.006-0.061-0.008
					c-0.132-0.012-0.262-0.01-0.393-0.015c-0.088-0.003-0.174-0.013-0.262-0.013h-0.094c-0.008,0-0.016,0-0.023,0H231.01
					c-4.14,0-7.5,3.36-7.5,7.5c0,4.13,3.36,7.5,7.5,7.5h145.313l-14.926,171.375c-0.002,0.013-0.002,0.026-0.004,0.039l-3.766,43.241
					H97.018l4.359-44.998h49.621c4.143,0,7.5-3.358,7.5-7.5c0-4.142-3.357-7.5-7.5-7.5h-48.167l9.204-94.995h78.975
					c4.143,0,7.5-3.358,7.5-7.5c0-4.142-3.357-7.5-7.5-7.5h-77.521l4.328-44.662h83.193c4.13,0,7.5-3.37,7.5-7.5
					c0-4.14-3.37-7.5-7.5-7.5h-90c-0.004,0-0.007,0.001-0.011,0.001c-3.523-0.001-6.579,2.479-7.318,5.917
					c-0.005,0.025-0.014,0.049-0.019,0.074c-0.038,0.187-0.063,0.378-0.088,0.57c-0.007,0.061-0.02,0.119-0.026,0.18
					c-0.001,0.012-0.004,0.023-0.005,0.035l-5.124,52.885H7.5c-4.143,0-7.5,3.358-7.5,7.5c0,4.142,3.357,7.5,7.5,7.5h89.465
					l-9.204,94.995H61.002c-4.143,0-7.5,3.358-7.5,7.5c0,4.142,3.357,7.5,7.5,7.5h25.306l-5.012,51.721
					c-0.001,0.008-0.001,0.016-0.002,0.023l-7.749,79.979c-0.001,0.009-0.002,0.019-0.003,0.027l-0.003,0.029
					c-0.01,0.104-0.009,0.206-0.015,0.31c-0.007,0.138-0.021,0.273-0.021,0.413c0,0.006,0.001,0.012,0.001,0.019
					c0,0.193,0.014,0.383,0.028,0.573c0.006,0.061,0.004,0.123,0.011,0.183c0.02,0.194,0.053,0.385,0.088,0.575
					c0.01,0.056,0.015,0.113,0.026,0.168c0.029,0.144,0.07,0.283,0.108,0.424c0.026,0.099,0.047,0.2,0.077,0.297
					c0.009,0.027,0.021,0.053,0.029,0.081c0.363,1.116,0.979,2.118,1.783,2.936c0.015,0.015,0.027,0.032,0.042,0.046
					c0.08,0.08,0.167,0.152,0.251,0.228c0.517,0.474,1.101,0.876,1.74,1.191c0.133,0.066,0.264,0.135,0.4,0.192
					c0.041,0.018,0.085,0.03,0.127,0.046c0.188,0.075,0.377,0.147,0.572,0.208c0.018,0.005,0.035,0.008,0.053,0.014
					c0.222,0.066,0.446,0.124,0.675,0.171c0.03,0.006,0.061,0.008,0.09,0.014c0.218,0.041,0.437,0.076,0.66,0.098
					c0.005,0,0.009,0.001,0.014,0.002c0.246,0.024,0.49,0.036,0.732,0.036c0.003,0,0.007-0.001,0.011-0.001h33.388
					c3.687,27.953,27.652,49.603,56.597,49.603c28.943,0,52.908-21.65,56.595-49.603H347.9c3.688,27.953,27.652,49.603,56.596,49.603
					c28.943,0,52.91-21.65,56.598-49.603h33.396c0.005,0,0.011,0.001,0.016,0.001c0.25,0,0.496-0.015,0.74-0.039
					c0.044-0.004,0.086-0.013,0.13-0.018c0.195-0.023,0.389-0.05,0.579-0.088c0.082-0.016,0.161-0.038,0.242-0.057
					c0.147-0.034,0.295-0.07,0.439-0.113c0.098-0.029,0.193-0.063,0.289-0.096c0.123-0.042,0.246-0.086,0.367-0.135
					c0.104-0.041,0.203-0.086,0.304-0.131c0.11-0.051,0.22-0.103,0.327-0.158c0.102-0.052,0.2-0.106,0.298-0.162
					c0.103-0.06,0.205-0.122,0.306-0.186c0.094-0.06,0.188-0.121,0.278-0.185c0.102-0.071,0.199-0.146,0.298-0.222
					c0.082-0.065,0.165-0.129,0.245-0.197c0.103-0.087,0.2-0.178,0.298-0.271c0.068-0.065,0.139-0.129,0.205-0.197
					c0.104-0.106,0.203-0.218,0.302-0.331c0.053-0.061,0.108-0.12,0.159-0.182c0.11-0.136,0.21-0.276,0.31-0.417
					c0.034-0.049,0.072-0.095,0.105-0.145c0.122-0.183,0.237-0.371,0.343-0.565c0.008-0.012,0.016-0.023,0.021-0.036
					c0.113-0.208,0.217-0.421,0.31-0.641c0.026-0.063,0.046-0.128,0.071-0.191c0.061-0.155,0.121-0.31,0.172-0.471
					c0.033-0.104,0.057-0.211,0.086-0.316c0.033-0.125,0.068-0.249,0.096-0.376c0.025-0.113,0.041-0.229,0.06-0.344
					c0.017-0.101,0.039-0.2,0.052-0.303c0.318-2.548,6.191-49.667,8.814-80.135c0.003-0.029,0.004-0.059,0.007-0.088
					c0.755-8.783,1.239-16.179,1.239-20.707C511.998,232.264,468.26,188.525,414.498,188.525z M380.957,203.527h30.683l-3.919,44.996
					h-30.683L380.957,203.527z M171.008,428.129c-23.217,0-42.105-18.888-42.105-42.104s18.889-42.104,42.105-42.104
					s42.104,18.888,42.104,42.104S194.224,428.129,171.008,428.129z M404.496,428.129c-23.216,0-42.103-18.888-42.103-42.104
					s18.888-42.104,42.103-42.104c23.217,0,42.105,18.888,42.105,42.104S427.713,428.129,404.496,428.129z M487.863,378.522h-26.767
					c-3.686-27.955-27.652-49.606-56.598-49.606c-28.944,0-52.91,21.652-56.596,49.606H227.604
					c-3.686-27.955-27.651-49.606-56.596-49.606s-52.912,21.652-56.598,49.606H89.266l6.299-65.004H364.5v0.004
					c0.004,0,0.007,0,0.011,0c0.251,0,0.5-0.014,0.746-0.039c0.046-0.004,0.091-0.014,0.137-0.02c0.196-0.023,0.391-0.051,0.583-0.089
					c0.083-0.017,0.164-0.04,0.246-0.06c0.15-0.036,0.3-0.071,0.446-0.115c0.1-0.03,0.195-0.066,0.292-0.1
					c0.126-0.044,0.252-0.087,0.374-0.137c0.105-0.043,0.206-0.091,0.308-0.139c0.111-0.051,0.222-0.102,0.329-0.158
					c0.102-0.054,0.202-0.112,0.303-0.17c0.103-0.06,0.205-0.121,0.305-0.185c0.097-0.063,0.189-0.129,0.282-0.195
					c0.099-0.07,0.195-0.142,0.291-0.217c0.086-0.069,0.171-0.14,0.255-0.213c0.095-0.082,0.188-0.166,0.278-0.253
					c0.076-0.073,0.152-0.148,0.226-0.225c0.09-0.094,0.177-0.191,0.263-0.29c0.067-0.078,0.133-0.156,0.197-0.236
					c0.083-0.105,0.162-0.213,0.24-0.322c0.059-0.082,0.116-0.164,0.172-0.248c0.073-0.113,0.143-0.229,0.21-0.347
					c0.051-0.088,0.103-0.176,0.149-0.266c0.063-0.118,0.117-0.238,0.174-0.359c0.044-0.097,0.089-0.192,0.129-0.292
					c0.049-0.118,0.09-0.239,0.133-0.36c0.037-0.107,0.076-0.214,0.109-0.324c0.033-0.116,0.06-0.235,0.09-0.353
					c0.029-0.119,0.061-0.237,0.084-0.358c0.023-0.118,0.037-0.238,0.055-0.358c0.018-0.124,0.039-0.246,0.051-0.372
					c0.002-0.018,0.006-0.035,0.007-0.053l3.759-43.15h38.762c22.979,0,33.343,11.906,44.314,24.512
					c9.053,10.401,19.16,22.006,36.34,24.837C492.968,335.938,489.441,365.554,487.863,378.522z M496.432,297.838
					c-11.145-2.272-18.002-10.107-26.309-19.651c-10.389-11.935-23.072-26.5-47.385-29.214l3.88-44.548
					c39.764,5.881,70.38,40.229,70.38,81.602C496.998,288.838,496.788,292.922,496.432,297.838z"/>
			</g>
		</g>
		<g>
			<g>
				<path d="M171.008,358.524c-15.163,0-27.5,12.336-27.5,27.5s12.337,27.5,27.5,27.5c15.163,0,27.5-12.336,27.5-27.5
					C198.508,370.861,186.171,358.524,171.008,358.524z M171.008,398.524c-6.893,0-12.5-5.607-12.5-12.5s5.607-12.5,12.5-12.5
					s12.5,5.607,12.5,12.5S177.9,398.524,171.008,398.524z"/>
			</g>
		</g>
		<g>
			<g>
				<path d="M404.496,358.524c-15.163,0-27.5,12.336-27.5,27.5s12.337,27.5,27.5,27.5c15.163,0,27.5-12.336,27.5-27.5
					C431.996,370.861,419.659,358.524,404.496,358.524z M404.496,398.524c-6.893,0-12.5-5.607-12.5-12.5s5.607-12.5,12.5-12.5
					s12.5,5.607,12.5,12.5S411.389,398.524,404.496,398.524z"/>
			</g>
		</g>
		<g>
			<g>
				<path d="M71,188.527H34.334c-4.143,0-7.5,3.358-7.5,7.5c0,4.142,3.357,7.5,7.5,7.5H71c4.143,0,7.5-3.358,7.5-7.5
					C78.5,191.885,75.143,188.527,71,188.527z"/>
			</g>
		</g>
	</symbol>
	<symbol id='relax' viewBox="0 0 61 60">
		<g id="020---Good-Sleep"><path id="Shape" d="m2.4 25.08c-3.18542385 8.3188212-3.18542385 17.5211788 0 25.84.13360307.3491053.0426982.7443439-.23 1-3.64 3.35-2.44 8 1.67 8 1.85428189-.0738126 3.60596684-.8706857 4.88-2.22.25840135-.2678845.65052827-.3580737 1-.23 10.22 3.27 30.42 3.27 40.64 0 .3494717-.1280737.7415987-.0378845 1 .23 2.06 2.12 5.59 3.11 7.62 1.23s1.08-5.07-1.06-7c-.2584022-.2635068-.3506609-.647918-.24-1 3.2141652-8.3718825 3.1963409-17.6405416-.05-26-.1145516-.3400953.0024455-.7152926.29-.93 2.13-2 3-5.19 1.06-7s-5.62-.86-7.62 1.23c-.2655944.2548763-.6497411.3432301-1 .23-1.6817419-.5199948-3.3953071-.9308496-5.13-1.23-.5522847-.0994113-1.0805887.2677153-1.18.82s.2677153 1.0805887.82 1.18c1.6495516.2874763 3.279425.6782451 4.88 1.17 1.0594559.3410787 2.2206884.0546413 3-.74 2-2 5.28-2.25 5.28 0-.0945274 1.1406146-.6419544 2.1958522-1.52 2.93-.9165004.7824684-1.2270373 2.0649455-.77 3.18 3.0101367 7.8582688 3.0101367 16.5517312 0 24.41-.4741397 1.1391015-.1865858 2.4530633.72 3.29.877881.7196736 1.4322209 1.7599607 1.54 2.89 0 2.32-3.27 2.08-5.29 0-.7734379-.804605-1.9389171-1.0959748-3-.75-9.79 3.14-29.61 3.14-39.42 0-1.06108286-.3459748-2.22656211-.054605-3 .75-2 2-5.29 2.28-5.29 0 .09224288-1.1463477.64405857-2.2066995 1.53-2.94.90406296-.83456 1.18800099-2.1462737.71-3.28-2.98024918-7.8258677-2.98024918-16.4741323 0-24.3.47413975-1.1391015.18658579-2.4530633-.72-3.29-.87510534-.7279642-1.42247008-1.7758796-1.52-2.91 0-2.35 3.32-2 5.29 0 .77343789.804605 1.93891714 1.0959748 3 .75 6.34-2.06 15.91-2.67 22.71-2.39.5522847 0 1-.4477153 1-1s-.4477153-1-1-1c-7-.2-16.71.29-23.35 2.41-.34947173.1280737-.74159865.0378845-1-.23-1.99-2.08-5.53-3.06-7.55-1.18-1.59 1.47-1.63 4.56 1.06 7 .28999218.2789317.38456303.7045005.24 1.08z"/><path id="Shape" d="m10 52.89c.4890062.2484034 1.0868406.056561 1.34-.43 3.61-7.05 3.61-21.87 0-28.92-.2602914-.4740006-.8502415-.6552079-1.3317342-.4090516-.48149271.2461564-.68007171.8304882-.4482658 1.3190516 3.31 6.46 3.33 20.6 0 27.1-.2469243.4916536-.05031299 1.0904244.44 1.34z"/><path id="Shape" d="m7 49c3.17 0 3.1-10.75 2.91-14-.2-3.44-.86-8-2.91-8s-2.71 4.56-2.91 8c-.19 3.22-.26 14 2.91 14zm1-9h-1.95c-.07000274-1.3324145-.07000274-2.6675855 0-4h1.95c.07000274 1.3324145.07000274 2.6675855 0 4zm-1.82 2h1.64c-.09473807 1.5271102-.36998807 3.0376285-.82 4.5-.45001193-1.4623715-.72526193-2.9728898-.82-4.5zm1.64-8h-1.64c.09473807-1.5271102.36998807-3.0376285.82-4.5.45001193 1.4623715.72526193 2.9728898.82 4.5z"/><path id="Shape" d="m31 26c0-.5522847-.4477153-1-1-1h-1.59l2.3-2.29c.2884599-.2860905.3751619-.7182668.219371-1.0934815-.155791-.3752147-.5231059-.6188811-.929371-.6165185h-4c-.5522847 0-1 .4477153-1 1s.4477153 1 1 1h1.59l-2.3 2.29c-.2884599.2860905-.3751619.7182668-.219371 1.0934815.155791.3752147.5231059.6188811.929371.6165185h4c.5522847 0 1-.4477153 1-1z"/><path id="Shape" d="m43 21c0-.5522847-.4477153-1-1-1h-4.59l5.3-5.29c.2884599-.2860905.3751619-.7182668.219371-1.0934815-.155791-.3752147-.5231059-.6188811-.929371-.6165185h-7c-.5522847 0-1 .4477153-1 1s.4477153 1 1 1h4.59l-5.3 5.29c-.2884599.2860905-.3751619.7182668-.219371 1.0934815.155791.3752147.5231059.6188811.929371.6165185h7c.5522847 0 1-.4477153 1-1z"/><path id="Shape" d="m52 11c.5522847 0 1-.4477153 1-1 0-.55228475-.4477153-1-1-1h-6.59l7.3-7.29c.2884599-.28609046.3751619-.71826679.219371-1.09348151-.155791-.37521471-.5231059-.61888111-.929371-.61651849h-9c-.5522847 0-1 .44771525-1 1s.4477153 1 1 1h6.59l-7.3 7.29c-.2884599.28609046-.3751619.7182668-.219371 1.0934815.155791.3752147.5231059.6188811.929371.6165185z"/><path id="Shape" d="m25 34v1c0 .5522847.4477153 1 1 1s1-.4477153 1-1v-1c0-.5522847-.4477153-1-1-1s-1 .4477153-1 1z"/><path id="Shape" d="m39 34v1c0 .5522847.4477153 1 1 1s1-.4477153 1-1v-1c0-.5522847-.4477153-1-1-1s-1 .4477153-1 1z"/><path id="Shape" d="m33 44c2.7614237 0 5-2.2385763 5-5 0-.5522847-.4477153-1-1-1s-1 .4477153-1 1c0 1.6568542-1.3431458 3-3 3s-3-1.3431458-3-3c0-.5522847-.4477153-1-1-1s-1 .4477153-1 1c0 2.7614237 2.2385763 5 5 5z"/></g>
	</symbol>
	<symbol id='man' viewBox="0 0 512 512">
		<g>
			<g>
				<path d="M421.054,414.843c-4.142,0-7.5,3.358-7.5,7.5v70.514c0,2.283-1.858,4.141-4.141,4.141h-40.317V349.301
					c0-4.142-3.358-7.5-7.5-7.5c-4.142,0-7.5,3.358-7.5,7.5v147.698h-81.185l23.543-25.9c2.572-2.83,3.785-6.861,3.244-10.787
					c-0.01-0.076-0.022-0.152-0.035-0.228L277.24,327.617l6.041-9.094c3.34,2.372,5.913,4.656,10.738,4.656
					c4.908,0,9.497-2.747,11.755-7.269v-0.001l23.65-47.4l53.876,20.865c1.949,0.836,30.252,13.582,30.252,47.238v50.73
					c-0.001,4.141,3.357,7.5,7.5,7.5c4.142,0,7.5-3.358,7.5-7.5v-50.73c0-44.344-37.969-60.463-39.585-61.128
					c-0.047-0.02-0.095-0.039-0.143-0.057l-89.668-34.726v-21.03c14.242-11.076,24.117-27.495,26.596-46.227
					c7.101-0.5,13.69-3.152,19.071-7.779c7.027-6.043,11.059-14.838,11.059-24.126c0-7.708-2.781-15.068-7.737-20.803V92.953
					C348.144,41.699,306.446,0,255.192,0c-51.254,0-92.952,41.699-92.952,92.953v28.511c-5.009,5.677-7.733,12.665-7.733,20.074
					c0,9.291,4.03,18.085,11.059,24.129c5.377,4.625,11.962,7.274,19.061,7.775c2.499,19.083,12.662,36.114,28.117,47.339v19.92
					l-89.571,34.725c-0.047,0.018-0.094,0.037-0.141,0.056c-1.617,0.665-39.585,16.784-39.585,61.128v156.245
					c0,10.555,8.587,19.142,19.142,19.142h71.457c4.142,0,7.5-3.358,7.5-7.5c0-4.142-3.358-7.5-7.5-7.5h-16.137V349.301
					c0-4.142-3.358-7.5-7.5-7.5c-4.142,0-7.5,3.358-7.5,7.5v147.698h-40.319c-2.283,0-4.141-1.858-4.141-4.141V336.611
					c0-33.769,28.493-46.486,30.243-47.234l53.834-20.87l23.652,47.402c2.263,4.533,6.858,7.27,11.756,7.27
					c4.801,0,7.349-2.249,10.738-4.656l6.041,9.094l-22.421,132.468c-0.013,0.075-0.024,0.15-0.035,0.226
					c-0.542,3.924,0.671,7.957,3.244,10.789l23.543,25.9h-29.995c-4.142,0-7.5,3.358-7.5,7.5s3.358,7.5,7.5,7.5h200.365
					c10.555,0,19.142-8.588,19.142-19.142v-70.514C428.554,418.201,425.196,414.843,421.054,414.843z M315.375,263.069l-22.049,44.19
					c-0.548-0.389-12.233-8.691-26.517-18.834c6.198-7.651-1.053,1.299,27.235-33.617L315.375,263.069z M271.043,309.833l-5.718,8.607
					h-18.703l-5.718-8.607l15.07-10.703L271.043,309.833z M227.743,243.121v-14.036c9.112,3.673,18.85,5.376,28.36,5.376
					c9.833,0,19.476-2.096,28.052-5.846v14.567l-28.181,34.785L227.743,243.121z M340.881,141.539
					c-0.001,4.913-2.129,9.562-5.839,12.753c-2.453,2.11-5.416,3.459-8.661,3.987v-33.477
					C335.001,126.202,340.881,133.352,340.881,141.539z M184.007,158.279c-8.718-1.415-14.5-8.623-14.5-16.741
					c0-8.018,6.647-14.544,14.5-16.359V158.279z M184.41,109.896c-2.389,0.274-5.127,0.921-7.168,1.615V92.953
					c0-42.983,34.968-77.952,77.951-77.952c42.983,0,77.951,34.969,77.951,77.952v18.043c-2.18-0.663-4.441-1.101-6.762-1.307
					c0-7.237,0.063-5.841-23.612-31.294c-4.354-4.678-11.556-5.658-17.037-2.077c-26.13,17.069-58.005,25.644-87.415,23.532
					C191.867,99.367,185.991,103.616,184.41,109.896z M199.008,164.184v-46.792v-2.465c32.375,1.896,66.318-7.722,93.739-25.283
					c10.858,11.658,16.738,17.773,18.634,20.099c0,5.884,0,47.705,0,54.44c0,30.447-24.826,55.276-55.277,55.276
					C221.91,219.46,199.008,192.934,199.008,164.184z M218.623,307.259l-22.049-44.19l21.293-8.247l27.241,33.625
					C231.255,298.284,219.88,306.366,218.623,307.259z M227.228,461.702l21.709-128.263h14.071l21.709,128.263l-28.744,31.623
					L227.228,461.702z"/>
			</g>
		</g>
	</symbol>
	<symbol id='shield' viewBox="-38 0 512 512.00142">
		<g id="surface1">
		<path d="M 435.488281 138.917969 L 435.472656 138.519531 C 435.25 133.601562 435.101562 128.398438 435.011719 122.609375 C 434.59375 94.378906 412.152344 71.027344 383.917969 69.449219 C 325.050781 66.164062 279.511719 46.96875 240.601562 9.042969 L 240.269531 8.726562 C 227.578125 -2.910156 208.433594 -2.910156 195.738281 8.726562 L 195.40625 9.042969 C 156.496094 46.96875 110.957031 66.164062 52.089844 69.453125 C 23.859375 71.027344 1.414062 94.378906 0.996094 122.613281 C 0.910156 128.363281 0.757812 133.566406 0.535156 138.519531 L 0.511719 139.445312 C -0.632812 199.472656 -2.054688 274.179688 22.9375 341.988281 C 36.679688 379.277344 57.492188 411.691406 84.792969 438.335938 C 115.886719 468.679688 156.613281 492.769531 205.839844 509.933594 C 207.441406 510.492188 209.105469 510.945312 210.800781 511.285156 C 213.191406 511.761719 215.597656 512 218.003906 512 C 220.410156 512 222.820312 511.761719 225.207031 511.285156 C 226.902344 510.945312 228.578125 510.488281 230.1875 509.925781 C 279.355469 492.730469 320.039062 468.628906 351.105469 438.289062 C 378.394531 411.636719 399.207031 379.214844 412.960938 341.917969 C 438.046875 273.90625 436.628906 199.058594 435.488281 138.917969 Z M 384.773438 331.523438 C 358.414062 402.992188 304.605469 452.074219 220.273438 481.566406 C 219.972656 481.667969 219.652344 481.757812 219.320312 481.824219 C 218.449219 481.996094 217.5625 481.996094 216.679688 481.820312 C 216.351562 481.753906 216.03125 481.667969 215.734375 481.566406 C 131.3125 452.128906 77.46875 403.074219 51.128906 331.601562 C 28.09375 269.097656 29.398438 200.519531 30.550781 140.019531 L 30.558594 139.683594 C 30.792969 134.484375 30.949219 129.039062 31.035156 123.054688 C 31.222656 110.519531 41.207031 100.148438 53.765625 99.449219 C 87.078125 97.589844 116.34375 91.152344 143.234375 79.769531 C 170.089844 68.402344 193.941406 52.378906 216.144531 30.785156 C 217.273438 29.832031 218.738281 29.828125 219.863281 30.785156 C 242.070312 52.378906 265.921875 68.402344 292.773438 79.769531 C 319.664062 91.152344 348.929688 97.589844 382.246094 99.449219 C 394.804688 100.148438 404.789062 110.519531 404.972656 123.058594 C 405.0625 129.074219 405.21875 134.519531 405.453125 139.683594 C 406.601562 200.253906 407.875 268.886719 384.773438 331.523438 Z M 384.773438 331.523438 " style=" stroke:none;fill-rule:nonzero;fill-opacity:1;" />
		<path d="M 217.996094 128.410156 C 147.636719 128.410156 90.398438 185.652344 90.398438 256.007812 C 90.398438 326.367188 147.636719 383.609375 217.996094 383.609375 C 288.351562 383.609375 345.59375 326.367188 345.59375 256.007812 C 345.59375 185.652344 288.351562 128.410156 217.996094 128.410156 Z M 217.996094 353.5625 C 164.203125 353.5625 120.441406 309.800781 120.441406 256.007812 C 120.441406 202.214844 164.203125 158.453125 217.996094 158.453125 C 271.785156 158.453125 315.546875 202.214844 315.546875 256.007812 C 315.546875 309.800781 271.785156 353.5625 217.996094 353.5625 Z M 217.996094 353.5625 " style=" stroke:none;fill-rule:nonzero;fill-opacity:1;" />
		<path d="M 254.667969 216.394531 L 195.402344 275.660156 L 179.316406 259.574219 C 173.449219 253.707031 163.9375 253.707031 158.070312 259.574219 C 152.207031 265.441406 152.207031 274.953125 158.070312 280.816406 L 184.78125 307.527344 C 187.714844 310.460938 191.558594 311.925781 195.402344 311.925781 C 199.246094 311.925781 203.089844 310.460938 206.023438 307.527344 L 275.914062 237.636719 C 281.777344 231.769531 281.777344 222.257812 275.914062 216.394531 C 270.046875 210.523438 260.535156 210.523438 254.667969 216.394531 Z M 254.667969 216.394531 " style=" stroke:none;fill-rule:nonzero;fill:fill-opacity:1;" />
		</g>
	</symbol>
	<symbol id='coin' viewBox="0 0 511 511.99978">
		<path d="m235.792969 347.265625c3.902343-3.910156 3.902343-10.238281 0-14.148437-3.90625-3.898438-10.234375-3.898438-14.144531 0-3.898438 3.910156-3.898438 10.238281 0 14.148437 3.910156 3.898437 10.238281 3.898437 14.144531 0zm0 0"/><path d="m188.449219 109.96875c0 60.636719 49.332031 109.972656 109.96875 109.972656s109.96875-49.335937 109.96875-109.972656-49.332031-109.96875-109.96875-109.96875-109.96875 49.332031-109.96875 109.96875zm199.945312 0c0 49.613281-40.363281 89.976562-89.976562 89.976562s-89.976563-40.363281-89.976563-89.976562c0-49.609375 40.363282-89.972656 89.976563-89.972656s89.976562 40.363281 89.976562 89.972656zm0 0"/><path d="m115.652344 509.042969c3.875 3.90625 10.183594 3.949219 14.109375.082031l48.46875-47.75c8.234375-8.234375 10.738281-20.425781 7.117187-31.023438l10.425782-10.054687c5.613281-5.421875 13.003906-8.410156 20.816406-8.410156h132.902344c23.578124 0 45.863281-9.054688 62.757812-25.496094.695312-.675781-5.277344 6.359375 90.667969-108.3125 14.230469-16.835937 12.101562-42.117187-4.75-56.363281-16.746094-14.113282-41.832031-12.085938-56.101563 4.460937l-58.992187 60.632813c-7.449219-9.167969-18.808594-14.882813-31.082031-14.882813h-111.480469c-15.863281-6.636719-32.695313-9.996093-50.0625-9.996093-48.140625 0-90.175781 22.234374-112.734375 63.921874-9.503906-1.800781-19.527344 1.074219-26.738282 8.285157l-47.558593 47.699219c-3.882813 3.894531-3.890625 10.195312-.015625 14.101562zm74.792968-227.121094c15.3125 0 30.117188 3.082031 44.011719 9.160156 1.265625.554688 2.628907.839844 4.007813.839844h113.527344c10.839843 0 19.996093 8.839844 19.996093 19.992187 0 11.027344-8.96875 19.996094-19.996093 19.996094h-81.566407c-5.519531 0-9.996093 4.476563-9.996093 9.996094 0 5.523438 4.476562 9.996094 9.996093 9.996094h81.566407c22.050781 0 39.988281-17.9375 39.988281-39.988282 0-1.757812-.125-3.5-.351563-5.226562 57.066406-58.660156 65.113282-66.902344 65.457032-67.3125 7.125-8.410156 19.773437-9.476562 28.1875-2.382812 8.421874 7.121093 9.488281 19.761718 2.34375 28.21875l-89.667969 107.195312c-13.09375 12.570312-30.285157 19.488281-48.457031 19.488281h-132.902344c-13.023438 0-25.351563 4.980469-34.703125 14.015625l-8.496094 8.199219-78.320313-78.316406c18.304688-34.339844 52.652344-53.871094 95.375-53.871094zm-125.320312 66.34375c3.296875-3.296875 8.359375-3.890625 12.378906-1.40625 1.730469 1.054687-3.238281-3.46875 86.589844 86.234375 3.996094 3.996094 3.78125 10.363281.054688 14.089844l-41.320313 40.707031-98.230469-98.980469zm0 0"/><path d="m286.421875 49.988281v11.714844c-11.636719 4.125-19.996094 15.238281-19.996094 28.273437 0 16.535157 13.453125 29.992188 29.992188 29.992188 5.511719 0 9.996093 4.484375 9.996093 9.996094 0 5.511718-4.484374 9.996094-9.996093 9.996094-4.269531 0-8.882813-2.683594-12.980469-7.5625-3.554688-4.226563-9.859375-4.769532-14.085938-1.21875-4.226562 3.554687-4.773437 9.859374-1.21875 14.085937 5.34375 6.355469 11.628907 10.785156 18.289063 13.019531v11.667969c0 5.523437 4.476563 9.996094 9.996094 9.996094s9.996093-4.472657 9.996093-9.996094v-11.714844c11.636719-4.128906 19.996094-15.242187 19.996094-28.273437 0-16.539063-13.453125-29.992188-29.992187-29.992188-5.511719 0-9.996094-4.484375-9.996094-9.996094 0-5.511718 4.484375-10 9.996094-10 3.542969 0 7.28125 1.808594 10.8125 5.226563 3.96875 3.839844 10.296875 3.734375 14.136719-.230469 3.839843-3.96875 3.734374-10.296875-.230469-14.136718-5.074219-4.910157-10.152344-7.6875-14.722657-9.203126v-11.644531c0-5.523437-4.476562-10-9.996093-10s-9.996094 4.476563-9.996094 10zm0 0"/>
	</symbol>
	<symbol id='campany' viewBox="0 0 480 480">
		<g>
			<g>
				<path d="M125.112,383.126c-5.46-3.631-11.692-5.937-18.2-6.736c12.484-9.827,20.161-24.531,21.088-40.392
					c0-52.896-30.456-64-56-64s-56,11.104-56,64c0.929,15.862,8.609,30.566,21.096,40.392C15.89,379.003-0.031,397.031,0,418.398v53.6
					c0,4.418,3.582,8,8,8h128c4.418,0,8-3.582,8-8v-53.6C144.009,404.219,136.918,390.978,125.112,383.126z M32.416,327.534
					C34.584,300.718,47.2,287.998,72,287.998c22.704,0,35.2,10.736,38.776,33.136l-26.656-16c-3.789-2.273-8.703-1.044-10.976,2.745
					c-0.3,0.5-0.544,1.03-0.728,1.583C68.368,321.606,46.512,326.198,32.416,327.534z M33.112,343.582
					c13.696-1.128,38.4-5.272,49.92-20.44l28.592,17.16C108.416,359.894,84.28,375.998,72,375.998
					C54.157,372.959,39.314,360.586,33.112,343.582z M78.608,422.062L72,428.686l-6.608-6.616L72,405.534L78.608,422.062z
					 M128,463.998H16v-45.6c0-14.58,11.82-26.4,26.4-26.4h17.76L48.568,421.03c-1.185,2.971-0.487,6.363,1.776,8.624l16,16
					c3.124,3.123,8.188,3.123,11.312,0l16-16c2.263-2.261,2.961-5.653,1.776-8.624l-11.616-29.032H101.6c14.58,0,26.4,11.82,26.4,26.4
					V463.998z"/>
			</g>
		</g>
		<g>
			<g>
				<path d="M293.112,383.126c-5.46-3.631-11.692-5.937-18.2-6.736c12.484-9.827,20.161-24.531,21.088-40.392
					c0-52.896-30.456-64-56-64s-56,11.104-56,64c0.929,15.862,8.609,30.566,21.096,40.392c-21.206,2.613-37.127,20.641-37.096,42.008
					v53.6c0,4.418,3.582,8,8,8h128c4.418,0,8-3.582,8-8v-53.6C312.009,404.219,304.918,390.978,293.112,383.126z M200.416,327.534
					c2.168-26.816,14.784-39.536,39.584-39.536c22.704,0,35.2,10.736,38.776,33.136l-26.656-16c-3.789-2.273-8.703-1.044-10.976,2.745
					c-0.3,0.5-0.544,1.03-0.728,1.583C236.368,321.606,214.512,326.198,200.416,327.534z M201.112,343.582
					c13.696-1.128,38.4-5.272,49.92-20.44l28.592,17.16c-3.208,19.592-27.344,35.696-39.624,35.696
					C222.157,372.959,207.314,360.586,201.112,343.582z M246.608,422.062L240,428.686l-6.608-6.616L240,405.534L246.608,422.062z
					 M296,463.998H184v-45.6c0-14.58,11.82-26.4,26.4-26.4h17.76l-11.616,29.032c-1.185,2.971-0.487,6.363,1.776,8.624l16,16
					c3.124,3.123,8.188,3.123,11.312,0l16-16c2.263-2.261,2.961-5.653,1.776-8.624l-11.592-29.032H269.6c14.58,0,26.4,11.82,26.4,26.4
					V463.998z"/>
			</g>
		</g>
		<g>
			<g>
				<path d="M461.112,383.126c-5.46-3.631-11.692-5.937-18.2-6.736c12.484-9.827,20.161-24.531,21.088-40.392
					c0-52.896-30.456-64-56-64s-56,11.104-56,64c0.929,15.862,8.609,30.566,21.096,40.392c-21.206,2.613-37.127,20.641-37.096,42.008
					v53.6c0,4.418,3.582,8,8,8h128c4.418,0,8-3.582,8-8v-53.6C480.009,404.219,472.918,390.978,461.112,383.126z M368.416,327.534
					c2.168-26.816,14.784-39.536,39.584-39.536c22.704,0,35.2,10.736,38.776,33.136l-26.656-16c-3.789-2.273-8.703-1.044-10.976,2.745
					c-0.3,0.5-0.544,1.03-0.728,1.583C404.368,321.606,382.512,326.198,368.416,327.534z M369.112,343.582
					c13.696-1.128,38.4-5.272,49.92-20.44l28.592,17.16c-3.208,19.592-27.344,35.696-39.624,35.696
					C390.157,372.959,375.314,360.586,369.112,343.582z M414.608,422.062L408,428.686l-6.608-6.616L408,405.534L414.608,422.062z
					 M464,463.998H352v-45.6c0-14.58,11.82-26.4,26.4-26.4h17.76l-11.616,29.032c-1.185,2.971-0.487,6.363,1.776,8.624l16,16
					c3.124,3.123,8.188,3.123,11.312,0l16-16c2.263-2.261,2.961-5.653,1.776-8.624l-11.592-29.032H437.6c14.58,0,26.4,11.82,26.4,26.4
					V463.998z"/>
			</g>
		</g>
		<g>
			<g>
				<path d="M368,239.998v-104c0-4.418-3.582-8-8-8h-72v-24c0-4.418-3.582-8-8-8h-48.6c-11.748-20.436-33.799-32.738-57.36-32
					C138.943,65.964,111.607,95.2,112,130.35c-0.013,20.888,5.944,41.344,17.168,58.96l32.256,50.688H152v16h224v-16H368z
					 M200,239.998h-9.424L200,225.19V239.998z M176,233.102l-33.328-52.384c-9.592-15.047-14.683-32.523-14.672-50.368
					c-0.453-26.524,20.044-48.709,46.52-50.352H176c26.51,0,48,21.49,48,48v2.352c0.017,17.856-5.074,35.343-14.672,50.4L176,233.102z
					 M272,239.998h-56v-39.96l6.832-10.728c11.224-17.616,17.181-38.072,17.168-58.96v-2.352c-0.019-5.399-0.718-10.775-2.08-16H272
					V239.998z M328,239.998h-16v-24h16V239.998z M352,151.998h-16v16h16v8h-16v16h16v48h-8v-32c0-4.418-3.582-8-8-8h-32
					c-4.418,0-8,3.582-8,8v32h-8v-48h16v-16h-16v-8h16v-16h-16v-8h64V151.998z"/>
			</g>
		</g>
		<g>
			<g>
				<rect x="248" y="119.998" width="16" height="16"/>
			</g>
		</g>
		<g>
			<g>
				<rect x="312" y="151.998" width="16" height="16"/>
			</g>
		</g>
		<g>
			<g>
				<rect x="312" y="175.998" width="16" height="16"/>
			</g>
		</g>
		<g>
			<g>
				<rect x="248" y="143.998" width="16" height="16"/>
			</g>
		</g>
		<g>
			<g>
				<rect x="248" y="167.998" width="16" height="16"/>
			</g>
		</g>
		<g>
			<g>
				<rect x="224" y="191.998" width="16" height="16"/>
			</g>
		</g>
		<g>
			<g>
				<rect x="248" y="191.998" width="16" height="16"/>
			</g>
		</g>
		<g>
			<g>
				<rect x="224" y="215.998" width="16" height="16"/>
			</g>
		</g>
		<g>
			<g>
				<rect x="248" y="215.998" width="16" height="16"/>
			</g>
		</g>
		<g>
			<g>
				<path d="M443.944,166.918l-15.688,3.16c0.984,4.888,1.784,9.888,2.4,14.856l15.864-1.888
					C445.872,177.654,445.008,172.23,443.944,166.918z"/>
			</g>
		</g>
		<g>
			<g>
				<path d="M36,167.302c-1.08,5.344-1.928,10.76-2.56,16.104l15.888,1.872c0.576-4.928,1.376-9.936,2.352-14.88L36,167.302z"/>
			</g>
		</g>
		<g>
			<g>
				<path d="M421.312,105.99l-13.936,7.856c2.456,4.344,4.8,8.848,6.88,13.4l14.504-6.752
					C426.472,115.574,423.96,110.694,421.312,105.99z"/>
			</g>
		</g>
		<g>
			<g>
				<path d="M403.136,78.934l-12.56,9.936c3.096,3.896,6.088,8,8.896,12.168l13.264-8.936
					C409.696,87.59,406.464,83.158,403.136,78.934z"/>
			</g>
		</g>
		<g>
			<g>
				<path d="M76.696,79.198c-3.368,4.24-6.6,8.68-9.616,13.176l13.296,8.904c2.776-4.152,5.76-8.248,8.864-12.176L76.696,79.198z"/>
			</g>
		</g>
		<g>
			<g>
				<path d="M380.96,55.046l-10.848,11.76c3.704,3.424,7.296,7,10.664,10.632l11.736-10.872
					C388.864,62.63,384.976,58.75,380.96,55.046z"/>
			</g>
		</g>
		<g>
			<g>
				<path d="M58.536,106.254c-2.64,4.696-5.144,9.592-7.432,14.544l14.512,6.72c2.12-4.576,4.432-9.096,6.856-13.408L58.536,106.254z"
					/>
			</g>
		</g>
		<g>
			<g>
				<path d="M44.848,135.894c-1.896,5.12-3.592,10.344-5.048,15.528l15.392,4.344c1.352-4.8,2.92-9.6,4.672-14.336L44.848,135.894z"/>
			</g>
		</g>
		<g>
			<g>
				<path d="M98.824,55.238c-4,3.672-7.856,7.552-11.536,11.536L99.04,77.63c3.36-3.664,6.976-7.232,10.64-10.64L98.824,55.238z"/>
			</g>
		</g>
		<g>
			<g>
				<path d="M435.048,135.566l-15,5.56c1.752,4.712,3.328,9.528,4.688,14.32l15.392-4.376
					C438.648,145.878,436.928,140.67,435.048,135.566z"/>
			</g>
		</g>
		<g>
			<g>
				<path d="M183.416,7.798c-5.248,1.488-10.472,3.2-15.504,5.048l5.544,15c4.648-1.712,9.472-3.28,14.32-4.656L183.416,7.798z"/>
			</g>
		</g>
		<g>
			<g>
				<path d="M215.416,1.446c-5.344,0.632-10.768,1.488-16.112,2.536l3.096,15.704c4.944-0.976,9.952-1.776,14.888-2.352L215.416,1.446
					z"/>
			</g>
		</g>
		<g>
			<g>
				<path d="M231.68,0.158l0.608,16c4.992-0.176,10.08-0.192,15.072,0l0.64-16C242.584-0.058,237.096-0.042,231.68,0.158z"/>
			</g>
		</g>
		<g>
			<g>
				<path d="M152.84,19.086c-4.904,2.264-9.8,4.8-14.528,7.424l7.84,13.952c4.368-2.456,8.872-4.8,13.408-6.856L152.84,19.086z"/>
			</g>
		</g>
		<g>
			<g>
				<path d="M264.232,1.398L262.4,17.286c4.92,0.568,9.928,1.352,14.888,2.32l3.064-15.704C274.984,2.854,269.6,2.014,264.232,1.398z"
					/>
			</g>
		</g>
		<g>
			<g>
				<path d="M355.32,34.862l-8.872,13.312c4.128,2.752,8.224,5.728,12.192,8.848l9.888-12.576
					C364.232,41.07,359.792,37.838,355.32,34.862z"/>
			</g>
		</g>
		<g>
			<g>
				<path d="M296.224,7.694l-4.296,15.408c4.8,1.344,9.6,2.896,14.32,4.624l5.512-15.016C306.672,10.83,301.448,9.15,296.224,7.694z"
					/>
			</g>
		</g>
		<g>
			<g>
				<path d="M124.408,35.054c-4.528,3.048-8.968,6.272-13.176,9.6l9.904,12.56c3.888-3.072,8-6.056,12.192-8.88L124.408,35.054z"/>
			</g>
		</g>
		<g>
			<g>
				<path d="M326.848,18.942L320.16,33.47c4.52,2.088,9.048,4.392,13.44,6.832l7.8-13.968
					C336.648,23.694,331.76,21.198,326.848,18.942z"/>
			</g>
		</g>
		<g>
			<g>
				<path d="M176,95.998c-17.673,0-32,14.327-32,32s14.327,32,32,32s32-14.327,32-32S193.673,95.998,176,95.998z M176,143.998
					c-8.837,0-16-7.163-16-16s7.163-16,16-16s16,7.163,16,16S184.837,143.998,176,143.998z"/>
			</g>
		</g>
	</symbol>
	<symbol id='like' viewBox="-5 0 457 457.1744">
		<path d="m333.03125 221.191406c.007812-7.480468-3.40625-14.550781-9.265625-19.199218 6.179687-7.28125 7.566406-17.488282 3.554687-26.152344-4.015624-8.667969-12.699218-14.210938-22.246093-14.203125h-54.472657l2.25-5.953125c3.542969-9.328125 5.351563-19.222656 5.34375-29.199219v-.886719c-.003906-7.585937-3.078124-14.847656-8.527343-20.128906-5.445313-5.28125-12.796875-8.132812-20.378907-7.90625-15.347656.816406-27.332031 13.566406-27.199218 28.933594 0 7.277344-10.226563 24-18.511719 35.152344h-61.433594c-3.867187 0-7 3.132812-7 7v140.113281c0 3.867187 3.132813 7 7 7h171.96875c8.84375.003906 17.003907-4.757813 21.351563-12.457031 4.34375-7.703126 4.207031-17.148438-.367188-24.71875 7.03125-3.148438 12.171875-9.425782 13.875-16.941407 1.707032-7.515625-.226562-15.394531-5.210937-21.269531 5.855469-4.644531 9.269531-11.710938 9.269531-19.183594zm-203.886719-45.539062h50.890625v126.109375h-50.890625zm179.371094 56.054687h-3.445313c-3.867187 0-7 3.132813-7 7 0 3.867188 3.132813 7 7 7 5.804688 0 10.511719 4.707031 10.511719 10.515625 0 5.804688-4.707031 10.511719-10.511719 10.511719h-10.957031c-3.867187 0-7 3.136719-7 7 0 3.867187 3.132813 7 7 7 5.804688 0 10.511719 4.707031 10.511719 10.515625 0 5.804688-4.707031 10.511719-10.511719 10.511719h-100.078125v-130.742188c5.933594-7.847656 22.054688-30.480469 22.054688-44.519531-.183594-7.8125 5.804687-14.390625 13.597656-14.945312 3.804688-.117188 7.496094 1.3125 10.230469 3.960937 2.730469 2.648437 4.273437 6.292969 4.273437 10.097656v.886719c.007813 8.28125-1.496094 16.496094-4.433594 24.238281l-5.835937 15.449219c-.8125 2.152344-.519531 4.5625.789063 6.457031 1.304687 1.890625 3.457031 3.019531 5.757812 3.023438h64.601562c5.804688 0 10.511719 4.707031 10.511719 10.511719 0 5.808593-4.707031 10.515624-10.511719 10.515624-3.867187 0-7 3.132813-7 7 0 3.867188 3.132813 7 7 7h3.445313c5.808594 0 10.515625 4.707032 10.515625 10.515626 0 5.808593-4.707031 10.515624-10.515625 10.515624zm-158.746094 29.464844c-10.0625 0-18.214843 8.15625-18.214843 18.214844 0 10.0625 8.152343 18.214843 18.214843 18.214843 10.058594 0 18.214844-8.152343 18.214844-18.214843-.011719-10.054688-8.160156-18.203125-18.214844-18.214844zm0 22.425781c-2.328125 0-4.21875-1.886718-4.214843-4.214844 0-2.328124 1.886718-4.21875 4.214843-4.214843 2.332031 0 4.21875 1.890625 4.214844 4.21875s-1.890625 4.210937-4.214844 4.210937zm291.277344-71.675781c6.464844-10.152344 8.59375-22.46875 5.914063-34.203125-2.675782-11.730469-9.9375-21.90625-20.164063-28.25-10.21875-6.375-15.851563-18.066406-14.464844-30.03125 1.417969-11.949219-2.007812-23.972656-9.511719-33.378906-7.503906-9.410156-18.460937-15.425782-30.425781-16.707032-11.972656-1.304687-22.117187-9.386718-26.0625-20.765624-3.910156-11.382813-12.210937-20.726563-23.054687-25.949219-10.84375-5.21875-23.328125-5.886719-34.664063-1.84375-11.355469 4.011719-24.007812 1.125-32.496093-7.417969-8.460938-8.558594-19.996094-13.375-32.03125-13.375-12.035157 0-23.570313 4.816406-32.03125 13.375-8.488282 8.546875-21.144532 11.433594-32.496094 7.417969-11.339844-4.039063-23.816406-3.371094-34.660156 1.847656-10.839844 5.222656-19.144532 14.566406-23.054688 25.945313-3.9375 11.382812-14.085938 19.472656-26.058594 20.777343-11.96875 1.28125-22.925781 7.296875-30.425781 16.707031-7.503906 9.410157-10.929687 21.429688-9.515625 33.382813 1.390625 11.960937-4.242188 23.652344-14.457031 30.027344-10.226563 6.34375-17.488281 16.515625-20.164063 28.246093-2.679687 11.730469-.550781 24.042969 5.90625 34.195313 6.441406 10.175781 6.441406 23.152344 0 33.328125-6.460937 10.15625-8.589844 22.472656-5.914062 34.203125 2.679687 11.734375 9.941406 21.910156 20.164062 28.253906 10.222656 6.375 15.851563 18.066407 14.464844 30.027344-1.414062 11.953125 2.011719 23.972656 9.515625 33.382813 7.5 9.410156 18.457031 15.425781 30.425781 16.707031 11.96875 1.300781 22.117188 9.386719 26.058594 20.761719 3.910156 11.382812 12.214844 20.726562 23.058594 25.949218s23.324218 5.886719 34.664062 1.847656c11.351563-4.019531 24.007813-1.132812 32.496094 7.417969 8.460938 8.558594 19.996094 13.375 32.03125 13.375s23.570312-4.816406 32.03125-13.375c8.488281-8.546875 21.140625-11.433593 32.496094-7.417969 11.335937 4.039063 23.816406 3.371094 34.65625-1.851562 10.84375-5.21875 19.144531-14.5625 23.054687-25.945312 3.941407-11.378907 14.089844-19.46875 26.0625-20.773438 11.964844-1.28125 22.921875-7.296875 30.425781-16.707031 7.503907-9.410157 10.929688-21.429688 9.511719-33.382813-1.386719-11.960937 4.242188-23.652344 14.460938-30.027344 10.226562-6.34375 17.488281-16.519531 20.167969-28.25 2.679687-11.734374.550781-24.050781-5.914063-34.207031-6.433594-10.171875-6.433594-23.140625 0-33.316406zm-11.808594 40.84375c4.453125 7 5.921875 15.488281 4.074219 23.574219-1.84375 8.085937-6.851562 15.097656-13.898438 19.472656-14.828124 9.25-23 26.214844-20.984374 43.574219.976562 8.238281-1.386719 16.523437-6.558594 23.007812s-12.722656 10.628907-20.96875 11.511719c-17.375 1.898438-32.097656 13.636719-37.8125 30.152344-2.695313 7.84375-8.417969 14.285156-15.890625 17.882812-7.472657 3.597656-16.074219 4.058594-23.886719 1.273438-16.476562-5.832032-34.835938-1.640625-47.152344 10.761718-5.828125 5.898438-13.777344 9.21875-22.074218 9.21875-8.292969 0-16.242188-3.320312-22.074219-9.21875-12.308594-12.410156-30.675781-16.601562-47.152344-10.761718-7.8125 2.785156-16.414063 2.324218-23.886719-1.273438s-13.195312-10.039062-15.886718-17.882812c-5.714844-16.515625-20.441407-28.253906-37.8125-30.152344-8.25-.882812-15.800782-5.027344-20.972657-11.511719s-7.53125-14.769531-6.554687-23.007812c2.015625-17.359375-6.152344-34.328125-20.984375-43.574219-7.050781-4.375-12.054688-11.386719-13.902344-19.472656-1.84375-8.085938-.375-16.574219 4.078125-23.574219 9.347656-14.761719 9.347656-33.59375 0-48.359375-4.453125-6.996094-5.921875-15.484375-4.078125-23.574219 1.847656-8.085937 6.851563-15.097656 13.902344-19.46875 14.828125-9.25 23-26.214843 20.988281-43.574219-.976562-8.238281 1.382812-16.523437 6.554688-23.007812 5.171874-6.488281 12.722656-10.632812 20.972656-11.515625 17.371094-1.894531 32.097656-13.636719 37.8125-30.152344 2.691406-7.84375 8.414062-14.28125 15.886718-17.882812 7.472657-3.597657 16.074219-4.054688 23.886719-1.269531 16.476563 5.828124 34.839844 1.640624 47.152344-10.761719 5.832031-5.898438 13.78125-9.21875 22.074219-9.21875 8.296875 0 16.246094 3.320312 22.074218 9.21875 12.316407 12.402343 30.675782 16.589843 47.152344 10.761719 7.8125-2.785157 16.414063-2.328126 23.886719 1.269531 7.472656 3.601562 13.195313 10.039062 15.890625 17.882812 5.714844 16.515625 20.4375 28.257813 37.8125 30.152344 8.246094.882813 15.796875 5.027344 20.96875 11.515625 5.171875 6.484375 7.535156 14.769531 6.558594 23.007812-2.019532 17.359376 6.152344 34.328126 20.984375 43.574219 7.046875 4.371094 12.054687 11.382813 13.898437 19.46875 1.847656 8.089844.378906 16.578125-4.074218 23.574219-9.351563 14.765625-9.351563 33.59375-.003907 48.359375zm-205.148437-194.460937c-94.046875 0-170.28125 76.242187-170.28125 170.285156 0 94.042968 76.242187 170.28125 170.285156 170.28125 94.046875 0 170.28125-76.238282 170.28125-170.285156-.105469-94-76.285156-170.175782-170.285156-170.28125zm0 326.570312c-86.3125-.003906-156.28125-69.972656-156.28125-156.285156s69.96875-156.28125 156.28125-156.28125c86.3125-.003906 156.285156 69.964844 156.285156 156.277344-.097656 86.273437-70.011719 156.1875-156.285156 156.285156zm0 0"/>
	</symbol>
</svg>